<?xml version="1.0" encoding="utf-8"?>
<!-- Uploaded to: SVG Repo, www.svgrepo.com, Generator: SVG Repo Mixer Tools -->
<svg fill="#ffffff" width="800px" height="800px" viewBox="0 0 50 50" xmlns="http://www.w3.org/2000/svg"
    xmlns:xlink="http://www.w3.org/1999/xlink">
    <path
        d="M27.697266 2 A 1.0001 1.0001 0 0 0 26.919922 2.375C26.662129 2.6972412 26.319048 2.9003906 26 2.9003906C25.92222 2.9003906 25.641341 2.8253476 25.554688 2.7675781 A 1.0001 1.0001 0 0 0 24.292969 2.8925781C23.981694 3.2038529 23.722422 3.5755995 23.507812 3.9765625C23.321785 3.6696809 23.09009 3.3822823 22.804688 3.1308594C22.143642 2.4813639 21.3181 2.1121598 20.460938 2.0273438C20.243972 2.0058749 20.024664 2.0023974 19.806641 2.015625C19.15257 2.0553077 18.504738 2.2490267 17.923828 2.5878906 A 1.0001 1.0001 0 0 0 17.441406 3.6152344C17.502896 3.9841871 17.437906 4.3258114 17.220703 4.5429688C17.138553 4.6251178 16.994932 4.728806 16.785156 4.78125 A 1.0001 1.0001 0 0 0 16.035156 5.6269531C15.90904 6.6358839 16.091073 7.7862575 16.658203 8.7988281C16.622014 8.7846784 16.574851 8.7810204 16.554688 8.7675781 A 1.0001 1.0001 0 0 0 15.292969 8.8925781C14.535834 9.649713 14 10.704094 14 11.900391C14 12.826412 14.151313 13.545227 14.357422 14.101562C14.279377 14.035372 14.20571 13.955047 14.132812 13.845703 A 1.0001 1.0001 0 0 0 13.283203 13.400391 A 1.0001 1.0001 0 0 0 13.103516 13.419922C12.326942 13.575237 11.800391 14.000781 11.400391 14.300781 A 1.0001 1.0001 0 0 0 11 15.099609L11 15.300781C11 15.619829 10.831967 15.9102 10.445312 16.167969 A 1.0001 1.0001 0 0 0 10 17L10 17.300781C10 17.831773 10.099597 18.430184 10.408203 18.984375C9.5548555 19.719818 9 20.793928 9 22 A 1.0001 1.0001 0 0 0 9.0117188 22.158203L13.011719 47.158203 A 1.0001 1.0001 0 0 0 14 48L18.451172 48L22.714844 48 A 1.0001 1.0001 0 0 0 23.289062 48L31.222656 48 A 1.0001 1.0001 0 0 0 31.771484 48L36 48 A 1.0001 1.0001 0 0 0 36.988281 47.158203L40.980469 22.201172 A 1.0001 1.0001 0 0 0 40.998047 22.070312 A 1.0008634 1.0008634 0 0 0 40.980469 21.800781C40.906518 20.346781 40.048847 19.101168 38.820312 18.462891C38.947874 18.067726 39 17.66782 39 17.300781L39 17 A 1.0001 1.0001 0 0 0 38.554688 16.167969C38.168033 15.9102 38 15.619829 38 15.300781L38 15.099609 A 1.0001 1.0001 0 0 0 37.599609 14.300781C37.595729 14.297871 37.589841 14.29395 37.585938 14.291016C37.898366 13.734491 38 13.13329 38 12.599609L38 12.300781 A 1.0001 1.0001 0 0 0 37.554688 11.46875C37.168033 11.210981 37 10.918657 37 10.599609L37 10.400391 A 1.0001 1.0001 0 0 0 36.599609 9.5996094C36.199609 9.2996094 35.673058 8.8740648 34.896484 8.71875 A 1.0001 1.0001 0 0 0 34.697266 8.6992188 A 1.0001 1.0001 0 0 0 33.867188 9.1445312C33.637864 9.488516 33.414286 9.5996094 33 9.5996094 A 1.0001 1.0001 0 0 0 32.447266 8.7050781C32.244789 8.6038397 32 8.2194382 32 7.9003906L32 7.6992188 A 1.0001 1.0001 0 0 0 31.599609 6.9003906C31.416131 6.7627819 31.195913 6.5995076 30.947266 6.4472656C30.972427 6.2669881 31 6.087242 31 5.9003906L31 5.5996094 A 1.0001 1.0001 0 0 0 30.447266 4.7050781C30.244789 4.6038397 30 4.2194382 30 3.9003906L30 3.6992188 A 1.0001 1.0001 0 0 0 29.599609 2.9003906C29.199609 2.6003906 28.673058 2.1748462 27.896484 2.0195312 A 1.0001 1.0001 0 0 0 27.697266 2 z" />
</svg>